<svg xmlns="http://www.w3.org/2000/svg" xmlns:xlink="http://www.w3.org/1999/xlink" font-size="10px" font-family="sans-serif" fill="none" stroke="none" stroke-width="1.5" width="900.0" height="500">
     <g transform="translate(0.0,0)">
          <g>
               <g>
                    <path d="M468.75000000000006,410A206.24999999999997,206.24999999999997 0 0,1 881.25,410" fill="none" stroke="rgb(0,0,0)" stroke-opacity="0.2" stroke-width="3.9585859944228874"/>
               </g>
               <g>
                    <path d="M431.25,410A131.25,131.25 0 0,1 693.75,410" fill="none" stroke="rgb(0,0,0)" stroke-opacity="0.2" stroke-width="4.943755299006494"/>
               </g>
               <g>
                    <path d="M356.25,410A37.5,37.5 0 0,1 431.25,410" fill="none" stroke="rgb(0,0,0)" stroke-opacity="0.2" stroke-width="4.767080745521919"/>
               </g>
               <g>
                    <path d="M431.25,410A37.5,37.5 0 0,1 506.25,410" fill="none" stroke="rgb(0,0,0)" stroke-opacity="0.2" stroke-width="8.090441319528543"/>
               </g>
               <g>
                    <path d="M206.25,410A112.5,112.5 0 0,1 431.25,410" fill="none" stroke="rgb(0,0,0)" stroke-opacity="0.2" stroke-width="3.8474240361923053"/>
               </g>
               <g>
                    <path d="M93.75,410A206.25,206.25 0 0,1 506.25,410" fill="none" stroke="rgb(0,0,0)" stroke-opacity="0.2" stroke-width="4.062075301653315"/>
               </g>
               <g>
                    <path d="M506.25,410A93.75,93.75 0 0,1 693.75,410" fill="none" stroke="rgb(0,0,0)" stroke-opacity="0.2" stroke-width="5.19860385419959"/>
               </g>
               <g>
                    <path d="M506.25,410A56.25,56.25 0 0,1 618.75,410" fill="none" stroke="rgb(0,0,0)" stroke-opacity="0.2" stroke-width="6.476232170304465"/>
               </g>
               <g>
                    <path d="M431.25,410A93.75,93.75 0 0,1 618.75,410" fill="none" stroke="rgb(0,0,0)" stroke-opacity="0.2" stroke-width="6.782682865573561"/>
               </g>
               <g>
                    <path d="M618.75,410A37.5,37.5 0 0,1 693.75,410" fill="none" stroke="rgb(0,0,0)" stroke-opacity="0.2" stroke-width="3.453877639491069"/>
               </g>
               <g>
                    <path d="M431.25,410A225.0,225.0 0 0,1 881.25,410" fill="none" stroke="rgb(0,0,0)" stroke-opacity="0.2" stroke-width="5.641800173540344"/>
               </g>
               <g>
                    <path d="M506.25,410A187.5,187.5 0 0,1 881.25,410" fill="none" stroke="rgb(0,0,0)" stroke-opacity="0.2" stroke-width="4.828313737302301"/>
               </g>
               <g>
                    <path d="M468.75000000000006,410A18.74999999999997,18.74999999999997 0 0,1 506.25,410" fill="none" stroke="rgb(0,0,0)" stroke-opacity="0.2" stroke-width="6.4149991785240825"/>
               </g>
               <g>
                    <path d="M431.25,410A18.75000000000003,18.75000000000003 0 0,1 468.75000000000006,410" fill="none" stroke="rgb(0,0,0)" stroke-opacity="0.2" stroke-width="7.7557259925572275"/>
               </g>
               <g>
                    <path d="M468.75000000000006,410A112.49999999999997,112.49999999999997 0 0,1 693.75,410" fill="none" stroke="rgb(0,0,0)" stroke-opacity="0.2" stroke-width="3.1191623125197534"/>
               </g>
               <g>
                    <path d="M431.25,410A206.25,206.25 0 0,1 843.75,410" fill="none" stroke="rgb(0,0,0)" stroke-opacity="0.2" stroke-width="4.828313737302301"/>
               </g>
               <g>
                    <path d="M431.25,410A56.25,56.25 0 0,1 543.75,410" fill="none" stroke="rgb(0,0,0)" stroke-opacity="0.2" stroke-width="6.14151684333315"/>
               </g>
               <g>
                    <path d="M206.25,410A131.25000000000003,131.25000000000003 0 0,1 468.75000000000006,410" fill="none" stroke="rgb(0,0,0)" stroke-opacity="0.2" stroke-width="3.1191623125197534"/>
               </g>
               <g>
                    <path d="M468.75000000000006,410A187.49999999999997,187.49999999999997 0 0,1 843.75,410" fill="none" stroke="rgb(0,0,0)" stroke-opacity="0.2" stroke-width="4.943755299006494"/>
               </g>
               <g>
                    <path d="M468.75000000000006,410A37.49999999999997,37.49999999999997 0 0,1 543.75,410" fill="none" stroke="rgb(0,0,0)" stroke-opacity="0.2" stroke-width="5.289540786924242"/>
               </g>
               <g>
                    <path d="M93.75,410A168.75,168.75 0 0,1 431.25,410" fill="none" stroke="rgb(0,0,0)" stroke-opacity="0.2" stroke-width="4.4935984103309865"/>
               </g>
               <g>
                    <path d="M468.75000000000006,410A74.99999999999997,74.99999999999997 0 0,1 618.75,410" fill="none" stroke="rgb(0,0,0)" stroke-opacity="0.2" stroke-width="5.641800173540344"/>
               </g>
               <g>
                    <path d="M18.75,410A206.25,206.25 0 0,1 431.25,410" fill="none" stroke="rgb(0,0,0)" stroke-opacity="0.2" stroke-width="5.983476069846412"/>
               </g>
               <g>
                    <path d="M18.75,410A225.00000000000003,225.00000000000003 0 0,1 468.75000000000006,410" fill="none" stroke="rgb(0,0,0)" stroke-opacity="0.2" stroke-width="5.8377304471659395"/>
               </g>
               <g>
                    <path d="M356.25,410A56.25000000000003,56.25000000000003 0 0,1 468.75000000000006,410" fill="none" stroke="rgb(0,0,0)" stroke-opacity="0.2" stroke-width="3.8474240361923053"/>
               </g>
               <g>
                    <path d="M93.75,410A187.50000000000003,187.50000000000003 0 0,1 468.75000000000006,410" fill="none" stroke="rgb(0,0,0)" stroke-opacity="0.2" stroke-width="3.1191623125197534"/>
               </g>
               <g>
                    <path d="M506.25,410A18.75,18.75 0 0,1 543.75,410" fill="none" stroke="rgb(0,0,0)" stroke-opacity="0.2" stroke-width="5.416376868966337"/>
               </g>
               <g>
                    <path d="M543.75,410A37.5,37.5 0 0,1 618.75,410" fill="none" stroke="rgb(0,0,0)" stroke-opacity="0.2" stroke-width="3.8474240361923053"/>
               </g>
               <g>
                    <path d="M18.75,410A262.5,262.5 0 0,1 543.75,410" fill="none" stroke="rgb(0,0,0)" stroke-opacity="0.2" stroke-width="3.295836866004329"/>
               </g>
               <g>
                    <path d="M131.25,410A168.75000000000003,168.75000000000003 0 0,1 468.75000000000006,410" fill="none" stroke="rgb(0,0,0)" stroke-opacity="0.2" stroke-width="3.7273599746820008"/>
               </g>
               <g>
                    <path d="M131.25,410A150.0,150.0 0 0,1 431.25,410" fill="none" stroke="rgb(0,0,0)" stroke-opacity="0.2" stroke-width="4.1588830833596715"/>
               </g>
               <g>
                    <path d="M18.75,410A56.25,56.25 0 0,1 131.25,410" fill="none" stroke="rgb(0,0,0)" stroke-opacity="0.2" stroke-width="3.596842909197556"/>
               </g>
               <g>
                    <path d="M281.25,410A112.5,112.5 0 0,1 506.25,410" fill="none" stroke="rgb(0,0,0)" stroke-opacity="0.2" stroke-width="4.249820016084325"/>
               </g>
               <g>
                    <path d="M281.25,410A93.75000000000003,93.75000000000003 0 0,1 468.75000000000006,410" fill="none" stroke="rgb(0,0,0)" stroke-opacity="0.2" stroke-width="3.596842909197556"/>
               </g>
               <g>
                    <path d="M281.25,410A75.0,75.0 0 0,1 431.25,410" fill="none" stroke="rgb(0,0,0)" stroke-opacity="0.2" stroke-width="4.943755299006494"/>
               </g>
               <g>
                    <path d="M393.75,410A18.75,18.75 0 0,1 431.25,410" fill="none" stroke="rgb(0,0,0)" stroke-opacity="0.2" stroke-width="3.8474240361923053"/>
               </g>
               <g>
                    <path d="M281.25,410A168.75,168.75 0 0,1 618.75,410" fill="none" stroke="rgb(0,0,0)" stroke-opacity="0.2" stroke-width="4.4935984103309865"/>
               </g>
               <g>
                    <path d="M431.25,410A112.5,112.5 0 0,1 656.25,410" fill="none" stroke="rgb(0,0,0)" stroke-opacity="0.2" stroke-width="5.5703581000564615"/>
               </g>
               <g>
                    <path d="M18.75,410A300.0,300.0 0 0,1 618.75,410" fill="none" stroke="rgb(0,0,0)" stroke-opacity="0.2" stroke-width="3.295836866004329"/>
               </g>
               <g>
                    <path d="M18.75,410A318.75,318.75 0 0,1 656.25,410" fill="none" stroke="rgb(0,0,0)" stroke-opacity="0.2" stroke-width="3.9585859944228874"/>
               </g>
               <g>
                    <path d="M281.25,410A187.5,187.5 0 0,1 656.25,410" fill="none" stroke="rgb(0,0,0)" stroke-opacity="0.2" stroke-width="3.295836866004329"/>
               </g>
               <g>
                    <path d="M618.75,410A18.75,18.75 0 0,1 656.25,410" fill="none" stroke="rgb(0,0,0)" stroke-opacity="0.2" stroke-width="4.249820016084325"/>
               </g>
               <g>
                    <path d="M468.75000000000006,410A56.24999999999997,56.24999999999997 0 0,1 581.25,410" fill="none" stroke="rgb(0,0,0)" stroke-opacity="0.2" stroke-width="5.606504427425053"/>
               </g>
               <g>
                    <path d="M581.25,410A18.75,18.75 0 0,1 618.75,410" fill="none" stroke="rgb(0,0,0)" stroke-opacity="0.2" stroke-width="4.062075301653315"/>
               </g>
               <g>
                    <path d="M431.25,410A75.0,75.0 0 0,1 581.25,410" fill="none" stroke="rgb(0,0,0)" stroke-opacity="0.2" stroke-width="6.64622519826497"/>
               </g>
               <g>
                    <path d="M356.25,410A243.75,243.75 0 0,1 843.75,410" fill="none" stroke="rgb(0,0,0)" stroke-opacity="0.2" stroke-width="3.1191623125197534"/>
               </g>
               <g>
                    <path d="M318.75,410A131.25,131.25 0 0,1 581.25,410" fill="none" stroke="rgb(0,0,0)" stroke-opacity="0.2" stroke-width="3.295836866004329"/>
               </g>
               <g>
                    <path d="M506.25,410A168.75,168.75 0 0,1 843.75,410" fill="none" stroke="rgb(0,0,0)" stroke-opacity="0.2" stroke-width="3.295836866004329"/>
               </g>
               <g>
                    <path d="M543.75,410A18.75,18.75 0 0,1 581.25,410" fill="none" stroke="rgb(0,0,0)" stroke-opacity="0.2" stroke-width="3.295836866004329"/>
               </g>
               <g>
                    <path d="M506.25,410A37.5,37.5 0 0,1 581.25,410" fill="none" stroke="rgb(0,0,0)" stroke-opacity="0.2" stroke-width="5.868034508142219"/>
               </g>
               <g>
                    <path d="M618.75,410A131.25,131.25 0 0,1 881.25,410" fill="none" stroke="rgb(0,0,0)" stroke-opacity="0.2" stroke-width="3.596842909197556"/>
               </g>
               <g>
                    <path d="M318.75,410A56.25,56.25 0 0,1 431.25,410" fill="none" stroke="rgb(0,0,0)" stroke-opacity="0.2" stroke-width="5.101796072493233"/>
               </g>
               <g>
                    <path d="M18.75,410A281.25,281.25 0 0,1 581.25,410" fill="none" stroke="rgb(0,0,0)" stroke-opacity="0.2" stroke-width="4.4935984103309865"/>
               </g>
               <g>
                    <path d="M281.25,410A150.0,150.0 0 0,1 581.25,410" fill="none" stroke="rgb(0,0,0)" stroke-opacity="0.2" stroke-width="3.295836866004329"/>
               </g>
               <g>
                    <path d="M56.25,410A225.0,225.0 0 0,1 506.25,410" fill="none" stroke="rgb(0,0,0)" stroke-opacity="0.2" stroke-width="3.8474240361923053"/>
               </g>
               <g>
                    <path d="M93.75,410A243.75,243.75 0 0,1 581.25,410" fill="none" stroke="rgb(0,0,0)" stroke-opacity="0.2" stroke-width="3.7273599746820008"/>
               </g>
               <g>
                    <path d="M56.25,410A187.5,187.5 0 0,1 431.25,410" fill="none" stroke="rgb(0,0,0)" stroke-opacity="0.2" stroke-width="4.943755299006494"/>
               </g>
               <g>
                    <path d="M56.25,410A206.25000000000003,206.25000000000003 0 0,1 468.75000000000006,410" fill="none" stroke="rgb(0,0,0)" stroke-opacity="0.2" stroke-width="3.9585859944228874"/>
               </g>
               <g>
                    <path d="M56.25,410A243.75,243.75 0 0,1 543.75,410" fill="none" stroke="rgb(0,0,0)" stroke-opacity="0.2" stroke-width="3.1191623125197534"/>
               </g>
               <g>
                    <path d="M18.75,410A18.75,18.75 0 0,1 56.25,410" fill="none" stroke="rgb(0,0,0)" stroke-opacity="0.2" stroke-width="3.1191623125197534"/>
               </g>
               <g>
                    <path d="M543.75,410A56.25,56.25 0 0,1 656.25,410" fill="none" stroke="rgb(0,0,0)" stroke-opacity="0.2" stroke-width="3.7273599746820008"/>
               </g>
               <g>
                    <path d="M468.75000000000006,410A149.99999999999997,149.99999999999997 0 0,1 768.75,410" fill="none" stroke="rgb(0,0,0)" stroke-opacity="0.2" stroke-width="3.295836866004329"/>
               </g>
               <g>
                    <path d="M168.75,410A131.25,131.25 0 0,1 431.25,410" fill="none" stroke="rgb(0,0,0)" stroke-opacity="0.2" stroke-width="4.4935984103309865"/>
               </g>
               <g>
                    <path d="M18.75,410A243.75,243.75 0 0,1 506.25,410" fill="none" stroke="rgb(0,0,0)" stroke-opacity="0.2" stroke-width="4.636563680037474"/>
               </g>
               <g>
                    <path d="M581.25,410A131.25,131.25 0 0,1 843.75,410" fill="none" stroke="rgb(0,0,0)" stroke-opacity="0.2" stroke-width="3.453877639491069"/>
               </g>
               <g>
                    <path d="M356.25,410A112.5,112.5 0 0,1 581.25,410" fill="none" stroke="rgb(0,0,0)" stroke-opacity="0.2" stroke-width="3.1191623125197534"/>
               </g>
               <g>
                    <path d="M18.75,410A412.5,412.5 0 0,1 843.75,410" fill="none" stroke="rgb(0,0,0)" stroke-opacity="0.2" stroke-width="3.295836866004329"/>
               </g>
               <g>
                    <path d="M18.75,410A150.0,150.0 0 0,1 318.75,410" fill="none" stroke="rgb(0,0,0)" stroke-opacity="0.2" stroke-width="3.1191623125197534"/>
               </g>
               <g>
                    <path d="M318.75,410A75.00000000000003,75.00000000000003 0 0,1 468.75000000000006,410" fill="none" stroke="rgb(0,0,0)" stroke-opacity="0.2" stroke-width="3.295836866004329"/>
               </g>
               <g>
                    <path d="M581.25,410A150.0,150.0 0 0,1 881.25,410" fill="none" stroke="rgb(0,0,0)" stroke-opacity="0.2" stroke-width="4.1588830833596715"/>
               </g>
               <g>
                    <path d="M468.75000000000006,410A93.74999999999997,93.74999999999997 0 0,1 656.25,410" fill="none" stroke="rgb(0,0,0)" stroke-opacity="0.2" stroke-width="4.887144807032223"/>
               </g>
               <g>
                    <path d="M506.25,410A75.0,75.0 0 0,1 656.25,410" fill="none" stroke="rgb(0,0,0)" stroke-opacity="0.2" stroke-width="4.41665846874966"/>
               </g>
               <g>
                    <path d="M131.25,410A262.5,262.5 0 0,1 656.25,410" fill="none" stroke="rgb(0,0,0)" stroke-opacity="0.2" stroke-width="3.1191623125197534"/>
               </g>
               <g>
                    <path d="M168.75,410A150.00000000000003,150.00000000000003 0 0,1 468.75000000000006,410" fill="none" stroke="rgb(0,0,0)" stroke-opacity="0.2" stroke-width="3.295836866004329"/>
               </g>
               <g>
                    <path d="M431.25,410A150.0,150.0 0 0,1 731.25,410" fill="none" stroke="rgb(0,0,0)" stroke-opacity="0.2" stroke-width="4.41665846874966"/>
               </g>
               <g>
                    <path d="M318.75,410A93.75,93.75 0 0,1 506.25,410" fill="none" stroke="rgb(0,0,0)" stroke-opacity="0.2" stroke-width="3.1191623125197534"/>
               </g>
               <g>
                    <path d="M168.75,410A168.75,168.75 0 0,1 506.25,410" fill="none" stroke="rgb(0,0,0)" stroke-opacity="0.2" stroke-width="3.295836866004329"/>
               </g>
               <g>
                    <path d="M168.75,410A75.0,75.0 0 0,1 318.75,410" fill="none" stroke="rgb(0,0,0)" stroke-opacity="0.2" stroke-width="3.453877639491069"/>
               </g>
               <g>
                    <path d="M506.25,410A112.5,112.5 0 0,1 731.25,410" fill="none" stroke="rgb(0,0,0)" stroke-opacity="0.2" stroke-width="3.295836866004329"/>
               </g>
               <g>
                    <path d="M468.75000000000006,410A131.24999999999997,131.24999999999997 0 0,1 731.25,410" fill="none" stroke="rgb(0,0,0)" stroke-opacity="0.2" stroke-width="3.7273599746820008"/>
               </g>
               <g>
                    <path d="M731.25,410A56.25,56.25 0 0,1 843.75,410" fill="none" stroke="rgb(0,0,0)" stroke-opacity="0.2" stroke-width="3.453877639491069"/>
               </g>
          </g>
          <g>
               <circle fill="rgb(156,158,222)" stroke="rgb(109,110,155)" cx="506.25" cy="410" r="7.4167475373965805"/>
               <circle fill="rgb(156,158,222)" stroke="rgb(109,110,155)" cx="431.25" cy="410" r="8.694759703798356"/>
               <circle fill="rgb(156,158,222)" stroke="rgb(109,110,155)" cx="543.75" cy="410" r="5.172559299136579"/>
               <circle fill="rgb(156,158,222)" stroke="rgb(109,110,155)" cx="468.75000000000006" cy="410" r="7.934664770543135"/>
               <circle fill="rgb(115,117,181)" stroke="rgb(80,81,126)" cx="843.75" cy="410" r="4.646910110300488"/>
               <circle fill="rgb(115,117,181)" stroke="rgb(80,81,126)" cx="881.25" cy="410" r="4.334699212773035"/>
               <circle fill="rgb(74,85,132)" stroke="rgb(51,59,92)" cx="768.75" cy="410" r="2.4894225389307096"/>
               <circle fill="rgb(74,85,132)" stroke="rgb(51,59,92)" cx="581.25" cy="410" r="6.165670088151113"/>
               <circle fill="rgb(74,85,132)" stroke="rgb(51,59,92)" cx="731.25" cy="410" r="3.7321783584502906"/>
               <circle fill="rgb(74,85,132)" stroke="rgb(51,59,92)" cx="806.25" cy="410" r="2.0"/>
               <circle fill="rgb(74,85,132)" stroke="rgb(51,59,92)" cx="693.75" cy="410" r="3.891477791723594"/>
               <circle fill="rgb(74,85,132)" stroke="rgb(51,59,92)" cx="656.25" cy="410" r="5.113702281749276"/>
               <circle fill="rgb(206,219,156)" stroke="rgb(144,153,109)" cx="18.75" cy="410" r="5.809912950240233"/>
               <circle fill="rgb(206,219,156)" stroke="rgb(144,153,109)" cx="131.25" cy="410" r="3.7060534516525783"/>
               <circle fill="rgb(206,219,156)" stroke="rgb(144,153,109)" cx="206.25" cy="410" r="2.940134503579959"/>
               <circle fill="rgb(181,207,107)" stroke="rgb(126,144,74)" cx="393.75" cy="410" r="2.562215712515544"/>
               <circle fill="rgb(206,219,156)" stroke="rgb(144,153,109)" cx="243.74999999999997" cy="410" r="2.0"/>
               <circle fill="rgb(206,219,156)" stroke="rgb(144,153,109)" cx="56.25" cy="410" r="4.08151033766188"/>
               <circle fill="rgb(181,207,107)" stroke="rgb(126,144,74)" cx="318.75" cy="410" r="4.272834505651759"/>
               <circle fill="rgb(181,207,107)" stroke="rgb(126,144,74)" cx="281.25" cy="410" r="4.462860843795754"/>
               <circle fill="rgb(206,219,156)" stroke="rgb(144,153,109)" cx="93.75" cy="410" r="3.7773179196519897"/>
               <circle fill="rgb(74,85,132)" stroke="rgb(51,59,92)" cx="618.75" cy="410" r="5.8821872569293046"/>
               <circle fill="rgb(181,207,107)" stroke="rgb(126,144,74)" cx="356.25" cy="410" r="3.728523336546139"/>
               <circle fill="rgb(206,219,156)" stroke="rgb(144,153,109)" cx="168.75" cy="410" r="3.7003738353334623"/>
          </g>
          <g>
               <text pointer-events="none" x="-7" dy=".35em" transform="translate(506.25,410) rotate(270.0)" fill="rgb(0,0,0)" text-anchor="end">piggy</text>
               <text pointer-events="none" x="-7" dy=".35em" transform="translate(431.25,410) rotate(270.0)" fill="rgb(0,0,0)" text-anchor="end">ralph</text>
               <text pointer-events="none" x="-7" dy=".35em" transform="translate(543.75,410) rotate(270.0)" fill="rgb(0,0,0)" text-anchor="end">simon</text>
               <text pointer-events="none" x="-7" dy=".35em" transform="translate(468.75000000000006,410) rotate(270.0)" fill="rgb(0,0,0)" text-anchor="end">jack</text>
               <text pointer-events="none" x="-7" dy=".35em" transform="translate(843.75,410) rotate(270.0)" fill="rgb(0,0,0)" text-anchor="end">roger</text>
               <text pointer-events="none" x="-7" dy=".35em" transform="translate(881.25,410) rotate(270.0)" fill="rgb(0,0,0)" text-anchor="end">sam</text>
               <text pointer-events="none" x="-7" dy=".35em" transform="translate(768.75,410) rotate(270.0)" fill="rgb(0,0,0)" text-anchor="end">pig </text>
               <text pointer-events="none" x="-7" dy=".35em" transform="translate(581.25,410) rotate(270.0)" fill="rgb(0,0,0)" text-anchor="end">fire</text>
               <text pointer-events="none" x="-7" dy=".35em" transform="translate(731.25,410) rotate(270.0)" fill="rgb(0,0,0)" text-anchor="end">tribe</text>
               <text pointer-events="none" x="-7" dy=".35em" transform="translate(806.25,410) rotate(270.0)" fill="rgb(0,0,0)" text-anchor="end">lord of the flies</text>
               <text pointer-events="none" x="-7" dy=".35em" transform="translate(693.75,410) rotate(270.0)" fill="rgb(0,0,0)" text-anchor="end">glasses</text>
               <text pointer-events="none" x="-7" dy=".35em" transform="translate(656.25,410) rotate(270.0)" fill="rgb(0,0,0)" text-anchor="end">beast</text>
               <text pointer-events="none" x="-7" dy=".35em" transform="translate(18.75,410) rotate(270.0)" fill="rgb(0,0,0)" text-anchor="end">hunt</text>
               <text pointer-events="none" x="-7" dy=".35em" transform="translate(131.25,410) rotate(270.0)" fill="rgb(0,0,0)" text-anchor="end">kill</text>
               <text pointer-events="none" x="-7" dy=".35em" transform="translate(206.25,410) rotate(270.0)" fill="rgb(0,0,0)" text-anchor="end">dance</text>
               <text pointer-events="none" x="-7" dy=".35em" transform="translate(393.75,410) rotate(270.0)" fill="rgb(0,0,0)" text-anchor="end">fun</text>
               <text pointer-events="none" x="-7" dy=".35em" transform="translate(243.74999999999997,410) rotate(270.0)" fill="rgb(0,0,0)" text-anchor="end">rules</text>
               <text pointer-events="none" x="-7" dy=".35em" transform="translate(56.25,410) rotate(270.0)" fill="rgb(0,0,0)" text-anchor="end">shelter</text>
               <text pointer-events="none" x="-7" dy=".35em" transform="translate(318.75,410) rotate(270.0)" fill="rgb(0,0,0)" text-anchor="end">savage</text>
               <text pointer-events="none" x="-7" dy=".35em" transform="translate(281.25,410) rotate(270.0)" fill="rgb(0,0,0)" text-anchor="end">assembly</text>
               <text pointer-events="none" x="-7" dy=".35em" transform="translate(93.75,410) rotate(270.0)" fill="rgb(0,0,0)" text-anchor="end">rescue</text>
               <text pointer-events="none" x="-7" dy=".35em" transform="translate(618.75,410) rotate(270.0)" fill="rgb(0,0,0)" text-anchor="end">conch</text>
               <text pointer-events="none" x="-7" dy=".35em" transform="translate(356.25,410) rotate(270.0)" fill="rgb(0,0,0)" text-anchor="end">stick</text>
               <text pointer-events="none" x="-7" dy=".35em" transform="translate(168.75,410) rotate(270.0)" fill="rgb(0,0,0)" text-anchor="end">paint</text>
          </g>
     </g>
</svg>
